<?xml version="1.0" encoding="UTF-8"?>
<!DOCTYPE svg PUBLIC "-//W3C//DTD SVG 1.1//EN" "http://www.w3.org/Graphics/SVG/1.1/DTD/svg11.dtd">
<!-- Creator: CorelDRAW 2019 (64-Bit) -->
<svg xmlns="http://www.w3.org/2000/svg" xml:space="preserve" width="0.787402in" height="5.90551in" version="1.1" style="shape-rendering:geometricPrecision; text-rendering:geometricPrecision; image-rendering:optimizeQuality; fill-rule:evenodd; clip-rule:evenodd"
viewBox="0 0 787.4 5905.51"
 xmlns:xlink="http://www.w3.org/1999/xlink"
 xmlns:xodm="http://www.corel.com/coreldraw/odm/2003">
 <defs>
  <style type="text/css">
   <![CDATA[
    .str0 {stroke:#BEBEC2;stroke-width:20.83;stroke-miterlimit:2.61313}
    .fil0 {fill:none}
   ]]>
  </style>
   <clipPath id="id0">
    <path d="M-75.57 119.36l932.61 0 0 5667.94 -932.61 0 0 -5667.94z"/>
   </clipPath>
 </defs>
 <g id="Layer_x0020_1">
  <metadata id="CorelCorpID_0Corel-Layer"/>
  <g>
  </g>
  <g style="clip-path:url(#id0)">
   <g>
    <g id="_2571546223472">
     <line class="fil0 str0" x1="109.48" y1="6352.89" x2="671.99" y2= "5788.65" />
     <line class="fil0 str0" x1="109.48" y1="6163.92" x2="671.99" y2= "5599.68" />
     <line class="fil0 str0" x1="109.48" y1="5974.94" x2="671.99" y2= "5410.7" />
     <line class="fil0 str0" x1="109.48" y1="5785.96" x2="671.99" y2= "5221.72" />
     <line class="fil0 str0" x1="109.48" y1="5596.99" x2="671.99" y2= "5032.75" />
     <line class="fil0 str0" x1="109.48" y1="5408.01" x2="671.99" y2= "4843.77" />
     <line class="fil0 str0" x1="109.48" y1="5219.04" x2="671.99" y2= "4654.8" />
     <line class="fil0 str0" x1="109.48" y1="5030.06" x2="671.99" y2= "4465.82" />
     <line class="fil0 str0" x1="109.48" y1="4841.08" x2="671.99" y2= "4276.84" />
     <line class="fil0 str0" x1="109.48" y1="4652.11" x2="671.99" y2= "4087.87" />
     <line class="fil0 str0" x1="109.48" y1="4463.13" x2="671.99" y2= "3898.89" />
     <line class="fil0 str0" x1="109.48" y1="4274.15" x2="671.99" y2= "3709.91" />
     <line class="fil0 str0" x1="109.48" y1="4085.18" x2="671.99" y2= "3520.94" />
     <line class="fil0 str0" x1="109.48" y1="3896.2" x2="671.99" y2= "3331.96" />
     <line class="fil0 str0" x1="109.48" y1="3707.22" x2="671.99" y2= "3142.98" />
     <line class="fil0 str0" x1="109.48" y1="3518.25" x2="671.99" y2= "2954.01" />
     <line class="fil0 str0" x1="109.48" y1="3329.27" x2="671.99" y2= "2765.03" />
     <line class="fil0 str0" x1="109.48" y1="3140.3" x2="671.99" y2= "2576.06" />
     <line class="fil0 str0" x1="109.48" y1="2951.32" x2="671.99" y2= "2387.08" />
     <line class="fil0 str0" x1="109.48" y1="2762.34" x2="671.99" y2= "2198.1" />
     <line class="fil0 str0" x1="109.48" y1="2573.37" x2="671.99" y2= "2009.13" />
     <line class="fil0 str0" x1="109.48" y1="2384.39" x2="671.99" y2= "1820.15" />
     <line class="fil0 str0" x1="109.48" y1="2195.41" x2="671.99" y2= "1631.17" />
     <line class="fil0 str0" x1="109.48" y1="2006.44" x2="671.99" y2= "1442.2" />
     <line class="fil0 str0" x1="109.48" y1="1817.46" x2="671.99" y2= "1253.22" />
     <line class="fil0 str0" x1="109.48" y1="1628.48" x2="671.99" y2= "1064.24" />
     <line class="fil0 str0" x1="109.48" y1="1439.51" x2="671.99" y2= "875.27" />
     <line class="fil0 str0" x1="109.48" y1="1250.53" x2="671.99" y2= "686.29" />
     <line class="fil0 str0" x1="109.48" y1="1061.56" x2="671.99" y2= "497.31" />
     <line class="fil0 str0" x1="109.48" y1="872.58" x2="671.99" y2= "308.34" />
     <line class="fil0 str0" x1="109.48" y1="683.6" x2="671.99" y2= "119.36" />
     <line class="fil0 str0" x1="109.48" y1="494.63" x2="671.99" y2= "-69.61" />
     <line class="fil0 str0" x1="109.48" y1="305.65" x2="671.99" y2= "-258.59" />
     <line class="fil0 str0" x1="109.48" y1="116.67" x2="671.99" y2= "-447.57" />
     <line class="fil0 str0" x1="109.48" y1="-72.3" x2="671.99" y2= "-636.54" />
    </g>
   </g>
  </g>
  <polygon class="fil0" points="-75.57,119.36 857.04,119.36 857.04,5787.31 -75.57,5787.31 "/>
 </g>
</svg>
